<?xml version="1.0" encoding="UTF-8"?>
<svg width="100" height="100" viewBox="0 0 100 100" xmlns="http://www.w3.org/2000/svg">
  <!-- Background Circle -->
  <circle cx="50" cy="50" r="48" fill="#121b3b" />
  
  <!-- Stars -->
  <circle cx="30" cy="30" r="1.5" fill="#fff" />
  <circle cx="70" cy="25" r="2" fill="#fff" />
  <circle cx="20" cy="60" r="1.8" fill="#fff" />
  <circle cx="65" cy="70" r="1.5" fill="#fff" />
  <circle cx="80" cy="50" r="1.2" fill="#fff" />
  <circle cx="45" cy="15" r="1.7" fill="#fff" />
  <circle cx="85" cy="75" r="1" fill="#fff" />
  <circle cx="15" cy="40" r="1.3" fill="#fff" />
  
  <!-- Moon Crescent -->
  <path d="M65,50 A25,25 0 1,1 35,50 A18,18 0 1,0 65,50 Z" fill="#e6e6fa" />
  
  <!-- Central Star -->
  <g transform="translate(50, 50)">
    <circle cx="0" cy="0" r="3" fill="#ffd700" />
    <g id="rays">
      <path d="M0,-16 L0,-6" stroke="#ffd700" stroke-width="1.5" />
      <path d="M0,6 L0,16" stroke="#ffd700" stroke-width="1.5" />
      <path d="M-12,-12 L-5,-5" stroke="#ffd700" stroke-width="1.5" />
      <path d="M12,12 L5,5" stroke="#ffd700" stroke-width="1.5" />
      <path d="M-16,0 L-6,0" stroke="#ffd700" stroke-width="1.5" />
      <path d="M6,0 L16,0" stroke="#ffd700" stroke-width="1.5" />
      <path d="M-12,12 L-5,5" stroke="#ffd700" stroke-width="1.5" />
      <path d="M12,-12 L5,-5" stroke="#ffd700" stroke-width="1.5" />
    </g>
  </g>
</svg>
